<?xml version="1.0" encoding="UTF-8"?>
<svg version="1.1" xmlns="http://www.w3.org/2000/svg" width="247" height="287">
<path d="M0 0 C81.51 0 163.02 0 247 0 C247 94.71 247 189.42 247 287 C165.49 287 83.98 287 0 287 C0 192.29 0 97.58 0 0 Z " fill="#F8F6F3" transform="translate(0,0)"/>
<path d="M0 0 C1.42365927 -0.00407342 2.84731537 -0.00941959 4.27096558 -0.01593018 C8.1098454 -0.02951819 11.94848129 -0.02434068 15.78736496 -0.01479292 C19.82122158 -0.00715186 23.8550585 -0.0142542 27.88891602 -0.01895142 C34.66068233 -0.0243961 41.43235022 -0.01725129 48.20410156 -0.00292969 C56.01243129 0.01339437 63.82052594 0.00810495 71.62884998 -0.0084089 C78.35528723 -0.0220606 85.08165406 -0.02392549 91.8081007 -0.0160929 C95.81571997 -0.01143656 99.82322905 -0.01073495 103.83084106 -0.02070236 C107.60011828 -0.02942364 111.36909495 -0.02325696 115.13834 -0.00601959 C117.16643114 -0.00021676 119.19454796 -0.00902602 121.22262573 -0.0184021 C134.93485441 0.07607734 145.83204366 3.6866533 155.93359375 13.20068359 C159.70645885 17.18653301 162.27983287 21.44749998 164.62109375 26.38818359 C164.92917969 27.03142578 165.23726562 27.67466797 165.5546875 28.33740234 C168.3293486 34.45758784 168.77475028 39.99558066 168.7980957 46.64404297 C168.8046669 47.46269836 168.8112381 48.28135376 168.81800842 49.12481689 C168.83767377 51.82719021 168.8493921 54.52950799 168.859375 57.23193359 C168.86345053 58.15992264 168.86752605 59.08791168 168.87172508 60.04402161 C168.89256216 64.96082331 168.90687121 69.87759734 168.91625977 74.79443359 C168.92728841 79.84332747 168.96165405 84.89177631 169.00143147 89.94051361 C169.02773258 93.8476232 169.03596375 97.75462916 169.03954124 101.66181946 C169.04437642 103.5211333 169.05590144 105.38044349 169.07457924 107.2396698 C169.21682776 122.34432051 167.63074205 134.69177848 158.62109375 147.38818359 C158.11964844 148.09716797 157.61820313 148.80615234 157.1015625 149.53662109 C150.276499 158.20494991 139.483929 163.91025059 128.62109375 165.38818359 C126.19626979 165.45217901 123.76974449 165.46285538 121.34423828 165.43481445 C119.88599925 165.42204064 118.42775727 165.40960003 116.96951294 165.39744568 C116.20255222 165.3895294 115.43559151 165.38161312 114.64538956 165.37345695 C109.64516006 165.33074173 104.64466587 165.34318547 99.64428902 165.34334469 C95.28650547 165.34037345 90.93016679 165.32029442 86.57275391 165.26147461 C66.14634007 165.00088211 49.06119747 165.1635234 30.77096558 175.48707581 C28.25296711 176.542482 26.32503181 176.55132385 23.62109375 176.38818359 C23.12609375 173.91318359 23.12609375 173.91318359 22.62109375 171.38818359 C25.92109375 169.73818359 29.22109375 168.08818359 32.62109375 166.38818359 C31.38133789 166.37360107 30.14158203 166.35901855 28.86425781 166.34399414 C24.21212629 166.28549916 19.56045321 166.20827462 14.90869141 166.12573242 C12.90518704 166.09272178 10.901595 166.06461771 8.89794922 166.04174805 C-8.82415305 165.83403263 -23.37692716 164.8289602 -37.06640625 152.38818359 C-45.75890283 143.31038131 -50.68334647 130.99332095 -50.66943359 118.52807617 C-50.67615082 117.65729431 -50.68286804 116.78651245 -50.68978882 115.88934326 C-50.70873162 113.02040847 -50.71269154 110.15170822 -50.71484375 107.28271484 C-50.72127566 105.27739874 -50.72800431 103.27208357 -50.73501587 101.26676941 C-50.74698036 97.0646243 -50.75069768 92.86256133 -50.74951172 88.66040039 C-50.7493089 83.29855948 -50.77657629 77.93725081 -50.81105614 72.57553577 C-50.83339295 68.43258793 -50.83734714 64.28976663 -50.83629227 60.14676476 C-50.83863935 58.17137511 -50.84741212 56.1959815 -50.862957 54.22065163 C-50.96308304 40.17963282 -49.85677653 29.0826576 -41.37890625 17.38818359 C-40.96125 16.79392578 -40.54359375 16.19966797 -40.11328125 15.58740234 C-29.99849931 2.47887747 -15.5741067 -0.07200118 0 0 Z " fill="#D9F1E3" transform="translate(60.37890625,16.61181640625)"/>
<path d="M0 0 C0.69771011 0.00359528 1.39542023 0.00719055 2.11427307 0.01089478 C2.84593689 0.01074875 3.57760071 0.01060272 4.33143616 0.01045227 C6.76094989 0.0111515 9.19038789 0.01894432 11.61988831 0.02676392 C13.29997719 0.02862806 14.98006662 0.03005198 16.66015625 0.03105164 C21.09071849 0.03487709 25.52124815 0.04470761 29.95179749 0.05575562 C34.46941182 0.06596914 38.98703139 0.07054913 43.50465393 0.07559204 C52.37511098 0.08632986 61.24554381 0.10340661 70.11598206 0.12442017 C70.11598206 4.41442017 70.11598206 8.70442017 70.11598206 13.12442017 C72.59291565 13.0200061 72.59291565 13.0200061 75.11988831 12.91348267 C77.3060454 12.85718678 79.49224667 12.8025886 81.67848206 12.74942017 C83.30753479 12.67401001 83.30753479 12.67401001 84.96949768 12.59707642 C94.06524258 12.43119657 94.06524258 12.43119657 98.11988831 15.63223267 C101.46042474 19.0845115 103.5256968 23.0301054 105.49098206 27.37442017 C105.83258362 28.09371704 106.17418518 28.81301392 106.52613831 29.55410767 C107.40285638 31.4045719 108.2608104 33.26390038 109.11598206 35.12442017 C109.44598206 35.78442017 109.77598206 36.44442017 110.11598206 37.12442017 C110.20047834 38.86486186 110.22321229 40.60851738 110.21363831 42.35098267 C110.21041565 43.38223267 110.20719299 44.41348267 110.20387268 45.47598267 C110.19549377 46.55621704 110.18711487 47.63645142 110.17848206 48.74942017 C110.17397034 49.83738892 110.16945862 50.92535767 110.16481018 52.04629517 C110.15299982 54.73905806 110.13652984 57.43171205 110.11598206 60.12442017 C110.77598206 60.12442017 111.43598206 60.12442017 112.11598206 60.12442017 C112.14287422 61.60348909 112.16232827 63.08269499 112.17848206 64.56192017 C112.19008362 65.3856311 112.20168518 66.20934204 112.21363831 67.05801392 C112.11598206 69.12442017 112.11598206 69.12442017 111.11598206 70.12442017 C107.96336454 70.22599615 104.81710023 70.32304545 101.66285706 70.29043579 C99.37889175 70.30311797 99.37889175 70.30311797 96.11598206 71.12442017 C94.19243453 73.93501712 94.19243453 73.93501712 93.11598206 77.12442017 C90.20942934 80.55266183 88.70048667 81.85490223 84.26832581 82.60879517 C79.47659009 82.82255289 75.37460676 82.95453631 71.49098206 79.87442017 C68.51895084 76.43312087 67.11598206 74.6841908 67.11598206 70.12442017 C60.51598206 70.12442017 53.91598206 70.12442017 47.11598206 70.12442017 C46.45598206 72.10442017 45.79598206 74.08442017 45.11598206 76.12442017 C42.54601324 79.86395563 39.66666517 81.83172094 35.19801331 82.67520142 C30.41843406 82.88300921 26.36348792 82.92865698 22.49098206 79.87442017 C19.51895084 76.43312087 18.11598206 74.6841908 18.11598206 70.12442017 C17.12598206 70.12442017 16.13598206 70.12442017 15.11598206 70.12442017 C14.90973206 71.01129517 14.70348206 71.89817017 14.49098206 72.81192017 C12.47544843 77.66752391 9.20986478 79.91217228 4.74098206 82.49942017 C0.95189227 83.4015844 -2.22912024 83.38957706 -5.88401794 82.12442017 C-9.86750425 79.55376205 -13.36237281 77.09821255 -14.60667419 72.39004517 C-14.69819763 71.64238892 -14.78972107 70.89473267 -14.88401794 70.12442017 C-15.94362732 70.14762329 -17.00323669 70.17082642 -18.09495544 70.19473267 C-19.48296925 70.21348961 -20.87099065 70.23168989 -22.25901794 70.24942017 C-22.95768982 70.26617798 -23.65636169 70.28293579 -24.37620544 70.30020142 C-26.2129928 70.31786283 -28.05003757 70.22745277 -29.88401794 70.12442017 C-32.4041922 67.60424591 -32.18132172 66.60942168 -32.19651794 63.12442017 C-32.21327576 62.23754517 -32.23003357 61.35067017 -32.24729919 60.43692017 C-32.12741638 59.67379517 -32.00753357 58.91067017 -31.88401794 58.12442017 C-30.89401794 57.46442017 -29.90401794 56.80442017 -28.88401794 56.12442017 C-27.79772765 53.14573164 -27.79772765 53.14573164 -26.88401794 49.49942017 C-23.82393317 38.81402242 -18.96014332 28.9451967 -14.21018982 18.9281311 C-13.00870231 16.38802018 -11.82415189 13.84115394 -10.64964294 11.28848267 C-5.45219366 0.0118509 -5.45219366 0.0118509 0 0 Z " fill="#091D24" transform="translate(86.88401794433594,63.875579833984375)"/>
<path d="M0 0 C1.42365927 -0.00407342 2.84731537 -0.00941959 4.27096558 -0.01593018 C8.1098454 -0.02951819 11.94848129 -0.02434068 15.78736496 -0.01479292 C19.82122158 -0.00715186 23.8550585 -0.0142542 27.88891602 -0.01895142 C34.66068233 -0.0243961 41.43235022 -0.01725129 48.20410156 -0.00292969 C56.01243129 0.01339437 63.82052594 0.00810495 71.62884998 -0.0084089 C78.35528723 -0.0220606 85.08165406 -0.02392549 91.8081007 -0.0160929 C95.81571997 -0.01143656 99.82322905 -0.01073495 103.83084106 -0.02070236 C107.60011828 -0.02942364 111.36909495 -0.02325696 115.13834 -0.00601959 C117.16643114 -0.00021676 119.19454796 -0.00902602 121.22262573 -0.0184021 C134.93485441 0.07607734 145.83204366 3.6866533 155.93359375 13.20068359 C159.70645885 17.18653301 162.27983287 21.44749998 164.62109375 26.38818359 C164.92917969 27.03142578 165.23726562 27.67466797 165.5546875 28.33740234 C168.3293486 34.45758784 168.77475028 39.99558066 168.7980957 46.64404297 C168.8046669 47.46269836 168.8112381 48.28135376 168.81800842 49.12481689 C168.83767377 51.82719021 168.8493921 54.52950799 168.859375 57.23193359 C168.86345053 58.15992264 168.86752605 59.08791168 168.87172508 60.04402161 C168.89256216 64.96082331 168.90687121 69.87759734 168.91625977 74.79443359 C168.92728841 79.84332747 168.96165405 84.89177631 169.00143147 89.94051361 C169.02773258 93.8476232 169.03596375 97.75462916 169.03954124 101.66181946 C169.04437642 103.5211333 169.05590144 105.38044349 169.07457924 107.2396698 C169.21682776 122.34432051 167.63074205 134.69177848 158.62109375 147.38818359 C158.11964844 148.09716797 157.61820313 148.80615234 157.1015625 149.53662109 C151.02794918 157.25055333 141.45745612 162.83090334 131.89453125 165.00927734 C127.66211359 165.49918726 123.50207719 165.49480463 119.24609375 165.45068359 C118.41464844 165.44617188 117.58320313 165.44166016 116.7265625 165.43701172 C114.69137478 165.42531524 112.65622452 165.40738294 110.62109375 165.38818359 C114.00361166 163.13317165 116.74344543 162.48318959 120.68359375 161.51318359 C135.47305232 157.71860166 147.7286245 152.36616157 156.1157074 138.97694397 C162.27209841 128.39001319 162.19948868 118.2452377 162.1171875 106.36083984 C162.11734282 104.52200768 162.11883722 102.68317519 162.12159729 100.84434509 C162.1229753 97.00570049 162.11052533 93.16743222 162.08764648 89.32885742 C162.05928401 84.43922734 162.06200189 79.5502225 162.0747366 74.6605463 C162.08173404 70.8675362 162.07385804 67.07466738 162.06147957 63.28167534 C162.05700304 61.48018373 162.05659455 59.67867675 162.06054497 57.87718391 C162.07671793 44.01403281 161.6344684 30.74858578 152.62109375 19.38818359 C141.07925902 7.86884757 128.06191455 6.23718202 112.57666016 6.24291992 C111.27336258 6.23956131 109.970065 6.2362027 108.62727356 6.23274231 C105.06727523 6.22394423 101.50730096 6.22156599 97.9472928 6.22092652 C95.71913563 6.22021372 93.4909845 6.21807505 91.26282883 6.21542931 C83.47827519 6.20619024 75.69373863 6.20209268 67.90917969 6.20288086 C60.67068312 6.20348149 53.43226111 6.19292891 46.1937834 6.1771372 C39.963401 6.16403262 33.73304288 6.15869817 27.5026468 6.15933627 C23.78845682 6.15959037 20.07433318 6.15678791 16.36015701 6.14615822 C12.21482548 6.13461727 8.06965965 6.13924188 3.92431641 6.14526367 C2.7053215 6.13964417 1.4863266 6.13402466 0.23039246 6.12823486 C-12.59015069 6.17548244 -23.4004854 8.67325727 -33.19140625 17.51318359 C-40.94532897 25.8836833 -43.51759108 35.68387358 -43.5559082 46.75170898 C-43.5624794 47.58172424 -43.5690506 48.4117395 -43.57582092 49.26690674 C-43.59548591 52.00655217 -43.60720363 54.74614284 -43.6171875 57.48583984 C-43.62126303 58.4261096 -43.62533855 59.36637936 -43.62953758 60.33514214 C-43.65037306 65.3156296 -43.66468361 70.29608976 -43.67407227 75.27661133 C-43.68510917 80.39510283 -43.71948495 85.51315632 -43.75924397 90.63149357 C-43.78551996 94.58917492 -43.79377399 98.54675381 -43.79735374 102.50451469 C-43.80219424 104.3897744 -43.81373489 106.27503033 -43.83239174 108.16020393 C-43.96494616 122.44619154 -42.92432292 134.9336836 -33.37890625 146.38818359 C-25.64359089 154.19195307 -16.67443684 158.4887728 -5.58984375 158.68115234 C-3.64431218 158.66156646 -1.69887736 158.62632036 0.24609375 158.57568359 C1.25027344 158.56214844 2.25445312 158.54861328 3.2890625 158.53466797 C5.73366239 158.49974511 8.17707109 158.45071107 10.62109375 158.38818359 C9.61691406 157.92669922 8.61273438 157.46521484 7.578125 156.98974609 C-10.616427 148.40694599 -26.8396494 136.27408602 -35.37890625 117.38818359 C-36.09737142 114.57924445 -36.3228423 112.30350878 -36.37890625 109.38818359 C-33.84097425 110.65714959 -33.65215041 111.66497413 -32.44140625 114.20068359 C-20.33838765 136.36609557 5.2066183 148.31189104 28.3125 155.42333984 C29.40433594 155.74173828 30.49617188 156.06013672 31.62109375 156.38818359 C33.18150391 156.88125 33.18150391 156.88125 34.7734375 157.38427734 C43.31904866 159.96516662 48.48326001 158.6152556 56.62109375 155.38818359 C54.23560367 152.53528277 52.50497237 151.91327446 48.859375 151.39599609 C47.91328369 151.25129883 46.96719238 151.10660156 45.99243164 150.95751953 C44.98301514 150.81088867 43.97359863 150.66425781 42.93359375 150.51318359 C18.40284722 146.55716481 -2.21488323 137.60138231 -20.37890625 120.38818359 C-20.96929687 119.86611328 -21.5596875 119.34404297 -22.16796875 118.80615234 C-23.37890625 117.38818359 -23.37890625 117.38818359 -23.37890625 114.38818359 C-22.71890625 114.38818359 -22.05890625 114.38818359 -21.37890625 114.38818359 C-20.71890625 115.06880859 -20.05890625 115.74943359 -19.37890625 116.45068359 C-3.06411858 133.09176702 23.98095717 141.21413074 46.62109375 143.38818359 C45.9559375 142.61087891 45.29078125 141.83357422 44.60546875 141.03271484 C42.62109375 138.38818359 42.62109375 138.38818359 42.87109375 136.07568359 C43.11859375 135.51880859 43.36609375 134.96193359 43.62109375 134.38818359 C45.75 134.00927734 45.75 134.00927734 48.62109375 134.38818359 C50.82498069 136.3607069 52.6535836 138.2219066 54.55859375 140.45068359 C55.08420898 141.046875 55.60982422 141.64306641 56.15136719 142.25732422 C57.18644013 143.43421435 58.21608972 144.61590077 59.23974609 145.80273438 C60.37529148 147.10606271 61.54984459 148.37530325 62.734375 149.63427734 C64.99397222 152.05565957 66.49737671 153.89331545 67.30859375 157.13818359 C66.31671106 160.38434512 64.57406633 160.800507 61.62109375 162.38818359 C59.49031981 163.37074115 57.34278201 164.31740478 55.18359375 165.23583984 C54.5810376 165.49320419 53.97848145 165.75056854 53.35766602 166.01573181 C51.44691213 166.83080594 49.53403174 167.64075086 47.62109375 168.45068359 C46.33710205 168.99788702 45.05324657 169.54541021 43.76953125 170.09326172 C40.39009359 171.53302975 37.00929945 172.96912905 33.62109375 174.38818359 C32.27144531 174.96330688 32.27144531 174.96330688 30.89453125 175.55004883 C28.33793837 176.49257281 26.324509 176.54266447 23.62109375 176.38818359 C23.12609375 173.91318359 23.12609375 173.91318359 22.62109375 171.38818359 C25.92109375 169.73818359 29.22109375 168.08818359 32.62109375 166.38818359 C31.38133789 166.37360107 30.14158203 166.35901855 28.86425781 166.34399414 C24.21212629 166.28549916 19.56045321 166.20827462 14.90869141 166.12573242 C12.90518704 166.09272178 10.901595 166.06461771 8.89794922 166.04174805 C-8.82415305 165.83403263 -23.37692716 164.8289602 -37.06640625 152.38818359 C-45.75890283 143.31038131 -50.68334647 130.99332095 -50.66943359 118.52807617 C-50.67615082 117.65729431 -50.68286804 116.78651245 -50.68978882 115.88934326 C-50.70873162 113.02040847 -50.71269154 110.15170822 -50.71484375 107.28271484 C-50.72127566 105.27739874 -50.72800431 103.27208357 -50.73501587 101.26676941 C-50.74698036 97.0646243 -50.75069768 92.86256133 -50.74951172 88.66040039 C-50.7493089 83.29855948 -50.77657629 77.93725081 -50.81105614 72.57553577 C-50.83339295 68.43258793 -50.83734714 64.28976663 -50.83629227 60.14676476 C-50.83863935 58.17137511 -50.84741212 56.1959815 -50.862957 54.22065163 C-50.96308304 40.17963282 -49.85677653 29.0826576 -41.37890625 17.38818359 C-40.96125 16.79392578 -40.54359375 16.19966797 -40.11328125 15.58740234 C-29.99849931 2.47887747 -15.5741067 -0.07200118 0 0 Z " fill="#176549" transform="translate(60.37890625,16.61181640625)"/>
<path d="M0 0 C2.537932 1.268966 2.72675584 2.27679054 3.9375 4.8125 C16.0405186 26.97791197 41.58552455 38.92370745 64.69140625 46.03515625 C65.78324219 46.35355469 66.87507813 46.67195313 68 47 C69.04027344 47.32871094 70.08054687 47.65742188 71.15234375 47.99609375 C79.69795491 50.57698303 84.86216626 49.227072 93 46 C90.61450992 43.14709917 88.88387862 42.52509086 85.23828125 42.0078125 C84.29218994 41.86311523 83.34609863 41.71841797 82.37133789 41.56933594 C81.36192139 41.42270508 80.35250488 41.27607422 79.3125 41.125 C54.78175347 37.16898122 34.16402302 28.21319871 16 11 C15.40960938 10.47792969 14.81921875 9.95585937 14.2109375 9.41796875 C13 8 13 8 13 5 C13.66 5 14.32 5 15 5 C15.99 6.0209375 15.99 6.0209375 17 7.0625 C33.31478767 23.70358342 60.35986342 31.82594715 83 34 C82.33484375 33.22269531 81.6696875 32.44539063 80.984375 31.64453125 C79 29 79 29 79.25 26.6875 C79.62125 25.8521875 79.62125 25.8521875 80 25 C82.12890625 24.62109375 82.12890625 24.62109375 85 25 C87.20388694 26.97252331 89.03248985 28.833723 90.9375 31.0625 C91.46311523 31.65869141 91.98873047 32.25488281 92.53027344 32.86914062 C93.56534638 34.04603076 94.59499597 35.22771717 95.61865234 36.41455078 C96.75419773 37.71787912 97.92875084 38.98711965 99.11328125 40.24609375 C101.37287847 42.66747597 102.87628296 44.50513185 103.6875 47.75 C102.69561731 50.99616152 100.95297258 51.4123234 98 53 C95.86922606 53.98255755 93.72168826 54.92922118 91.5625 55.84765625 C90.65866577 56.23370277 90.65866577 56.23370277 89.73657227 56.62754822 C87.82581838 57.44262234 85.91293799 58.25256727 84 59.0625 C82.7160083 59.60970343 81.43215282 60.15722662 80.1484375 60.70507812 C76.76899984 62.14484616 73.3882057 63.58094546 70 65 C69.10023437 65.38341553 68.20046875 65.76683105 67.2734375 66.16186523 C64.71684462 67.10438922 62.70341525 67.15448087 60 67 C59.67 65.35 59.34 63.7 59 62 C62.3 60.35 65.6 58.7 69 57 C56.17965183 50.5065769 43.11195512 51.07732994 29 51 C29 50.67 29 50.34 29 50 C34.94 49.67 40.88 49.34 47 49 C43.4421875 47.329375 43.4421875 47.329375 39.8125 45.625 C23.28121111 37.51062336 8.71973219 25.07339542 1 8 C0.28153483 5.19106086 0.05606395 2.91532518 0 0 Z " fill="#269E78" transform="translate(24,126)"/>
<path d="M0 0 C9.714375 -0.12375 9.714375 -0.12375 19.625 -0.25 C21.65865723 -0.28641602 23.69231445 -0.32283203 25.78759766 -0.36035156 C27.41307522 -0.37204224 29.03856456 -0.38223317 30.6640625 -0.390625 C31.91352661 -0.4213208 31.91352661 -0.4213208 33.18823242 -0.45263672 C38.75375306 -0.45595249 41.72064416 0.37388442 46 4 C47.75021631 7.50043263 47.26948691 11.45565964 47.3125 15.3125 C47.34150391 16.16779297 47.37050781 17.02308594 47.40039062 17.90429688 C47.44288075 22.12389332 47.38274023 24.38524817 45.10546875 28.04296875 C41.42955826 31.45972414 38.37342974 31.13238456 33.5859375 31.09765625 C32.85629791 31.0962413 32.12665833 31.09482635 31.37490845 31.09336853 C29.04156415 31.08776531 26.70831536 31.07521235 24.375 31.0625 C22.79427222 31.05748541 21.21354293 31.05292243 19.6328125 31.04882812 C15.75514182 31.03864517 11.87767798 31.01907055 8 31 C8 36.28 8 41.56 8 47 C5.36 47 2.72 47 0 47 C0 31.49 0 15.98 0 0 Z " fill="#285D46" transform="translate(93,196)"/>
<path d="M0 0 C5.61336873 2.6315982 8.41092043 6.17334878 11.25390625 11.65625 C13.50442059 18.18274157 12.75309555 23.16786039 10.109375 29.390625 C7.00869119 34.97336471 2.87233408 39.8194294 -1.19921875 44.71728516 C-2.99417777 46.88191383 -4.74553493 49.08066545 -6.49609375 51.28125 C-9.43397683 50.94281893 -11.09092553 50.65266333 -13.30126953 48.62646484 C-13.84251465 47.92215332 -14.38375977 47.2178418 -14.94140625 46.4921875 C-15.54339844 45.71488281 -16.14539063 44.93757813 -16.765625 44.13671875 C-17.37792969 43.31816406 -17.99023438 42.49960938 -18.62109375 41.65625 C-19.24113281 40.86089844 -19.86117187 40.06554687 -20.5 39.24609375 C-26.70751401 31.11625282 -29.57293331 24.6804435 -28.49609375 14.28125 C-26.74439689 7.71238678 -22.77019328 4.24522289 -17.49609375 0.28125 C-12.59830682 -2.16764347 -5.14582007 -1.48173849 0 0 Z " fill="#69B899" transform="translate(63.49609375,30.71875)"/>
<path d="M0 0 C1.13758003 -0.01354271 1.13758003 -0.01354271 2.29814148 -0.02735901 C3.90274105 -0.0418598 5.50739972 -0.05074784 7.11206055 -0.05444336 C9.55555195 -0.06631555 11.99649659 -0.1154751 14.43945312 -0.16601562 C16.00128981 -0.17548337 17.56314195 -0.18271673 19.125 -0.1875 C20.2128051 -0.21679848 20.2128051 -0.21679848 21.32258606 -0.24668884 C27.07380382 -0.19607366 29.38059396 1.43505963 33.26171875 5.37109375 C34.61611543 8.0798871 34.32673326 10.38042643 34.26171875 13.37109375 C31.29171875 13.37109375 28.32171875 13.37109375 25.26171875 13.37109375 C25.26171875 12.05109375 25.26171875 10.73109375 25.26171875 9.37109375 C15.36171875 9.37109375 5.46171875 9.37109375 -4.73828125 9.37109375 C-4.73828125 12.67109375 -4.73828125 15.97109375 -4.73828125 19.37109375 C-3.80032715 19.34490967 -2.86237305 19.31872559 -1.89599609 19.29174805 C1.60416175 19.2062252 5.10320017 19.14370283 8.60400391 19.09643555 C10.11525049 19.0713828 11.62637699 19.03732998 13.13720703 18.99389648 C15.31703376 18.93282685 17.49525137 18.90479459 19.67578125 18.8828125 C21.6395874 18.84353638 21.6395874 18.84353638 23.64306641 18.8034668 C28.43008289 19.55436501 29.96662591 20.86025264 33.26171875 24.37109375 C33.99047852 26.52758789 33.99047852 26.52758789 33.953125 28.65625 C33.94732422 29.43419922 33.94152344 30.21214844 33.93554688 31.01367188 C33.89880859 31.81224609 33.86207031 32.61082031 33.82421875 33.43359375 C33.82228516 34.23603516 33.82035156 35.03847656 33.81835938 35.86523438 C33.74011481 39.35726036 33.59000624 41.76304822 31.9140625 44.8671875 C27.20041592 49.15738593 18.4128096 47.67642803 12.35644531 47.72119141 C10.71339765 47.73775832 9.07042229 47.76505854 7.42773438 47.80322266 C5.05170547 47.85809079 2.67735892 47.87987593 0.30078125 47.89453125 C-0.42958344 47.91720062 -1.15994812 47.93987 -1.91244507 47.96322632 C-5.8982582 47.94677883 -7.5532817 47.52260226 -10.67822266 44.96337891 C-13.71713677 41.13934595 -13.84345101 39.20890275 -13.73828125 34.37109375 C-10.76828125 34.37109375 -7.79828125 34.37109375 -4.73828125 34.37109375 C-4.73828125 35.69109375 -4.73828125 37.01109375 -4.73828125 38.37109375 C5.16171875 38.37109375 15.06171875 38.37109375 25.26171875 38.37109375 C25.26171875 35.07109375 25.26171875 31.77109375 25.26171875 28.37109375 C23.80149292 28.41036987 23.80149292 28.41036987 22.31176758 28.45043945 C18.68716573 28.54119396 15.06266348 28.59843276 11.43725586 28.64575195 C9.87067761 28.67083922 8.30421576 28.7049179 6.73803711 28.74829102 C4.48131566 28.80920601 2.22614581 28.83735874 -0.03125 28.859375 C-0.72727829 28.88518143 -1.42330658 28.91098785 -2.14042664 28.93757629 C-6.05486338 28.93981511 -7.59472639 28.48938814 -10.6574707 25.96557617 C-13.87894304 21.94884655 -13.9237997 19.69025083 -13.98828125 14.55859375 C-14.0140625 13.33527344 -14.03984375 12.11195313 -14.06640625 10.8515625 C-13.71430539 7.11677836 -13.00431538 5.3201148 -10.73828125 2.37109375 C-7.07328038 -0.07224016 -4.24547829 0.03113357 0 0 Z " fill="#2B5F49" transform="translate(157.73828125,195.62890625)"/>
<path d="M0 0 C4.021875 -0.0825 8.04375 -0.165 12.1875 -0.25 C13.44715576 -0.28641602 14.70681152 -0.32283203 16.00463867 -0.36035156 C17.50861206 -0.37533691 17.50861206 -0.37533691 19.04296875 -0.390625 C20.06414795 -0.41157227 21.08532715 -0.43251953 22.13745117 -0.45410156 C25.79888173 0.12673092 27.37126055 1.42696372 30 4 C31.39379883 6.01123047 31.39379883 6.01123047 32.45703125 8.1171875 C32.84697266 8.88933594 33.23691406 9.66148438 33.63867188 10.45703125 C34.02603516 11.25496094 34.41339844 12.05289063 34.8125 12.875 C35.42254883 14.06029297 35.42254883 14.06029297 36.04492188 15.26953125 C38.22676414 19.67721932 39.54268699 22.96192081 39 28 C36.69 28.33 34.38 28.66 32 29 C31.67 32.3 31.34 35.6 31 39 C33.64 39.33 36.28 39.66 39 40 C39.66 42.97 40.32 45.94 41 49 C37.04 49 33.08 49 29 49 C28.46375 47.7625 27.9275 46.525 27.375 45.25 C25.24797644 41.08457886 23.38661573 38.94960699 19 37 C13.1070316 36.17706541 8.93891586 36.51370645 4 40 C2.68 40 1.36 40 0 40 C0 26.8 0 13.6 0 0 Z " fill="#778D90" transform="translate(154,81)"/>
<path d="M0 0 C2.40742594 0.04500998 4.80710582 0.02076312 7.21459961 -0.01147461 C19.97728853 -0.01114232 19.97728853 -0.01114232 24.54858398 3.66625977 C26.99649563 6.20707359 26.99032299 6.96440788 27.41577148 10.73266602 C27.27139648 11.76391602 27.12702148 12.79516602 26.97827148 13.85766602 C24.00827148 13.85766602 21.03827148 13.85766602 17.97827148 13.85766602 C17.97827148 12.53766602 17.97827148 11.21766602 17.97827148 9.85766602 C8.07827148 9.85766602 -1.82172852 9.85766602 -12.02172852 9.85766602 C-12.02172852 19.42766602 -12.02172852 28.99766602 -12.02172852 38.85766602 C-2.12172852 38.85766602 7.77827148 38.85766602 17.97827148 38.85766602 C17.97827148 35.88766602 17.97827148 32.91766602 17.97827148 29.85766602 C14.34827148 29.85766602 10.71827148 29.85766602 6.97827148 29.85766602 C6.97827148 26.88766602 6.97827148 23.91766602 6.97827148 20.85766602 C13.57827148 20.85766602 20.17827148 20.85766602 26.97827148 20.85766602 C27.06077148 24.03391602 27.14327148 27.21016602 27.22827148 30.48266602 C27.2646875 31.47218262 27.30110352 32.46169922 27.33862305 33.48120117 C27.41113826 39.26721363 26.82376134 42.45671652 22.97827148 46.85766602 C18.213539 49.24003226 11.0176855 48.16992061 5.72119141 48.20776367 C4.02280974 48.22431425 2.32449747 48.25159286 0.62646484 48.28979492 C-1.82564315 48.3446626 -4.27611998 48.36645115 -6.72875977 48.38110352 C-7.48413528 48.40377289 -8.2395108 48.42644226 -9.01777649 48.44979858 C-13.06178223 48.43365439 -14.80052846 48.03784897 -17.97753906 45.44995117 C-22.28772564 39.98410129 -21.35650492 33.68040465 -21.42675781 26.9921875 C-21.44828297 25.45289601 -21.48232165 23.91372511 -21.52929688 22.375 C-21.96329299 8.01914987 -21.96329299 8.01914987 -19.08422852 3.35766602 C-14.14817519 -1.04897754 -6.23047704 -0.13148218 0 0 Z " fill="#2D614B" transform="translate(59.021728515625,195.142333984375)"/>
<path d="M0 0 C4.29 0 8.58 0 13 0 C12.28013861 3.59930697 11.64756086 6.16352935 10.26586914 9.43554688 C9.91202652 10.2799231 9.5581839 11.12429932 9.19361877 11.9942627 C8.81132614 12.89334351 8.42903351 13.79242432 8.03515625 14.71875 C7.64178574 15.65424683 7.24841522 16.58974365 6.84312439 17.55358887 C5.58728805 20.53759053 4.3250567 23.5188364 3.0625 26.5 C1.80498083 29.48176632 0.54874966 32.46407302 -0.70741272 35.44641113 C-1.48872531 37.29998697 -2.27110119 39.15311507 -3.05467224 41.0057373 C-3.41166702 41.85011353 -3.7686618 42.69448975 -4.13647461 43.56445312 C-4.44878525 44.30215942 -4.76109589 45.03986572 -5.08287048 45.79992676 C-6.07924135 48.19008959 -7.03827502 50.59568756 -8 53 C-12.29 53 -16.58 53 -21 53 C-19.8109987 43.78523996 -16.12838345 36.13200936 -12.27392578 27.78955078 C-9.78773143 22.34546173 -7.40242921 16.85642916 -5 11.375 C-4.04187439 9.19522118 -3.08355812 7.01552616 -2.125 4.8359375 C-1.42375 3.24007812 -0.7225 1.64421875 0 0 Z " fill="#1D9A73" transform="translate(84,68)"/>
<path d="M0 0 C4.40830916 2.16407904 7.12843553 4.42506462 9 9 C9.95633303 15.37555356 8.55342701 18.59628155 4.80078125 23.74609375 C1.98350983 27.27226644 -0.94254777 30.68022198 -4 34 C-7.77839007 32.49203266 -9.64563017 30.3019872 -12.125 27.125 C-12.80820312 26.26132812 -13.49140625 25.39765625 -14.1953125 24.5078125 C-17.6085995 19.76467342 -18.54720134 16.37831028 -18.4609375 10.546875 C-17.6951155 6.31538397 -15.21271539 3.72165267 -12 1 C-8.28763586 -0.85618207 -4.05156912 -0.44809981 0 0 Z " fill="#DEF5E9" transform="translate(60,37)"/>
<path d="M0 0 C1.65 0 3.3 0 5 0 C5 1.65 5 3.3 5 5 C4.01 5.33 3.02 5.66 2 6 C1.67 21.51 1.34 37.02 1 53 C-5.6 53 -12.2 53 -19 53 C-20.12614646 48.49541418 -19.74590006 47.60152316 -18.0078125 43.4765625 C-17.5538208 42.38255127 -17.0998291 41.28854004 -16.63208008 40.16137695 C-16.13474365 38.99437256 -15.63740723 37.82736816 -15.125 36.625 C-14.11063216 34.19402916 -13.09630998 31.76303927 -12.08203125 29.33203125 C-11.56231923 28.09703851 -11.04230062 26.86217475 -10.52197266 25.62744141 C-8.24680512 20.2048493 -6.03038326 14.75870616 -3.8125 9.3125 C-3.06942571 7.49592382 -2.32597905 5.67949988 -1.58203125 3.86328125 C-1.27499268 3.11344971 -0.9679541 2.36361816 -0.65161133 1.59106445 C-0.43657959 1.06601318 -0.22154785 0.54096191 0 0 Z " fill="#1D9A73" transform="translate(148,68)"/>
<path d="M0 0 C3.5625 0.1875 3.5625 0.1875 5.5625 2.1875 C5.875 5.125 5.875 5.125 5.5625 8.1875 C5.07523437 8.60773438 4.58796875 9.02796875 4.0859375 9.4609375 C1.10402657 12.84043655 1.86672364 17.37376278 1.9375 21.66015625 C2.79412156 26.4947142 4.77830138 28.52699765 8.51953125 31.5390625 C11.86452477 34.23808213 13.39592151 36.07344322 14.04589844 40.42041016 C14.15836495 43.81838089 14.25586629 47.21217746 14.28320312 50.61181641 C14.31217066 52.78776113 14.40511618 54.95497952 14.5 57.12890625 C14.65996957 63.9677037 14.40538454 69.21876122 9.640625 74.5859375 C8.80354004 75.34132813 7.96645508 76.09671875 7.10400391 76.875 C4.4670214 79.09623967 4.4670214 79.09623967 2.64208984 81.9921875 C-0.41504495 86.15907904 -2.90346582 88.69076105 -7.99377441 89.68859863 C-15.67785995 90.43835166 -23.36131077 90.09653829 -31.0625 89.8125 C-33.42568724 89.76228835 -35.78897681 89.71666995 -38.15234375 89.67578125 C-43.91631074 89.566102 -49.6764269 89.39923708 -55.4375 89.1875 C-56.0975 90.8375 -56.7575 92.4875 -57.4375 94.1875 C-61.88686709 94.54825949 -61.88686709 94.54825949 -64.25 93 C-65.83949375 90.5739306 -65.80237512 89.03352594 -65.4375 86.1875 C-63.4375 84.1875 -63.4375 84.1875 -60.375 84 C-57.4375 84.1875 -57.4375 84.1875 -56.4375 85.1875 C-49.8077669 86.0211498 -43.03322223 86.0176337 -36.36083984 86.19677734 C-34.10589449 86.27300357 -31.85177549 86.38159878 -29.60009766 86.52490234 C-18.25999167 87.23145623 -8.70754783 87.48981261 0.30302429 79.8089447 C6.14910514 74.01707471 10.39198543 68.56989239 11.57421875 60.31640625 C11.55475056 57.79203151 11.44700848 55.26675078 11.25 52.75 C11.25708984 51.47962891 11.26417969 50.20925781 11.27148438 48.90039062 C11.01052672 41.59735823 9.75263484 37.6148777 4.51953125 32.40234375 C2.87366419 30.98981406 1.22281234 29.58302193 -0.4375 28.1875 C-2.17036868 24.72176264 -1.76545825 20.52582613 -1.8671875 16.68554688 C-1.98137611 12.71656815 -1.98137611 12.71656815 -3.9921875 9.44140625 C-4.46914062 9.02761719 -4.94609375 8.61382812 -5.4375 8.1875 C-4.89124449 0.26679515 -4.89124449 0.26679515 0 0 Z " fill="#6AB798" transform="translate(205.4375,72.8125)"/>
<path d="M0 0 C2.57161458 0.03255208 5.14322917 0.06510417 7.71484375 0.09765625 C3.32430337 12.02932752 -1.35814778 23.82625879 -6.16015625 35.59765625 C-6.85566736 37.30721088 -7.55098088 39.01684591 -8.24609375 40.7265625 C-9.92351509 44.85118668 -11.60357048 48.97472824 -13.28515625 53.09765625 C-16.58515625 53.09765625 -19.88515625 53.09765625 -23.28515625 53.09765625 C-22.75008137 48.27441409 -21.76274165 44.32265533 -19.80859375 39.88671875 C-19.30561768 38.73147705 -18.8026416 37.57623535 -18.28442383 36.38598633 C-17.74311193 35.16482726 -17.20168746 33.94371808 -16.66015625 32.72265625 C-15.83759025 30.8433667 -15.01795867 28.9628155 -14.19850159 27.08216858 C-13.65638417 25.83852444 -13.11328893 24.59530607 -12.56919861 23.3525238 C-10.0298793 17.54496182 -7.61650565 11.69014987 -5.25341797 5.80908203 C-2.95159621 0.12613659 -2.95159621 0.12613659 0 0 Z " fill="#1C9670" transform="translate(120.28515625,67.90234375)"/>
<path d="M0 0 C3.63 0 7.26 0 11 0 C10.4158143 4.3028216 9.37188537 7.9593609 7.70703125 11.96484375 C7.24409668 13.08842285 6.78116211 14.21200195 6.30419922 15.36962891 C5.81193848 16.54702637 5.31967773 17.72442383 4.8125 18.9375 C3.8107833 21.36050571 2.80947855 23.78368178 1.80859375 26.20703125 C1.08325439 27.9562085 1.08325439 27.9562085 0.34326172 29.74072266 C-1.82193275 34.99432973 -3.90147297 40.2806334 -5.9765625 45.5703125 C-7 48 -7 48 -8 49 C-9.84891946 49.23363881 -11.70488031 49.41303635 -13.5625 49.5625 C-14.57441406 49.64628906 -15.58632812 49.73007813 -16.62890625 49.81640625 C-17.41136719 49.87699219 -18.19382812 49.93757813 -19 50 C-18.39617895 46.58079087 -17.53059688 43.52001324 -16.23413086 40.30151367 C-15.87383286 39.40095749 -15.51353485 38.50040131 -15.14231873 37.57255554 C-14.75375198 36.6140419 -14.36518524 35.65552826 -13.96484375 34.66796875 C-13.56672989 33.67622147 -13.16861603 32.68447418 -12.75843811 31.66267395 C-11.48883659 28.50263814 -10.21325369 25.34505643 -8.9375 22.1875 C-8.0744741 20.04247687 -7.21183927 17.89729635 -6.34960938 15.75195312 C-4.23760269 10.49946654 -2.1202292 5.24917256 0 0 Z " fill="#1C9770" transform="translate(132,68)"/>
<path d="M0 0 C3.63 0 7.26 0 11 0 C6.79634335 11.44361235 2.29884944 22.74104354 -2.375 34 C-3.02237542 35.56500491 -3.66951188 37.13010869 -4.31640625 38.6953125 C-5.87486755 42.46468061 -7.43650129 46.23271874 -9 50 C-12.63 49.67 -16.26 49.34 -20 49 C-17.69715503 41.67854115 -14.87403036 34.61423295 -11.92138672 27.53515625 C-11.12999007 25.63696883 -10.34392351 23.73664179 -9.55859375 21.8359375 C-6.51323104 14.48938501 -3.33352186 7.22058056 0 0 Z " fill="#1C9670" transform="translate(102,68)"/>
<path d="M0 0 C3.22793797 -0.23329086 6.45371232 -0.37467674 9.6875 -0.5 C10.59951172 -0.56703125 11.51152344 -0.6340625 12.45117188 -0.703125 C15.1777381 -0.78244329 17.37236141 -0.74637315 20 0 C22.36388388 2.37784918 23.64168828 4.9638378 25 8 C25.61875 9.051875 26.2375 10.10375 26.875 11.1875 C28.16292939 14.40732348 27.80542365 15.71762281 27 19 C22.68751391 19.02886537 18.37505238 19.04675255 14.0625 19.0625 C12.83080078 19.07087891 11.59910156 19.07925781 10.33007812 19.08789062 C9.16025391 19.09111328 7.99042969 19.09433594 6.78515625 19.09765625 C5.15912476 19.10551147 5.15912476 19.10551147 3.50024414 19.11352539 C1 19 1 19 0 18 C-0.08631874 16.65732587 -0.10706473 15.31025678 -0.09765625 13.96484375 C-0.09443359 13.15595703 -0.09121094 12.34707031 -0.08789062 11.51367188 C-0.07951172 10.66353516 -0.07113281 9.81339844 -0.0625 8.9375 C-0.05798828 8.08349609 -0.05347656 7.22949219 -0.04882812 6.34960938 C-0.03700373 4.23304337 -0.01906769 2.11651315 0 0 Z " fill="#0B1D28" transform="translate(159,85)"/>
<path d="M0 0 C3.59604407 -0.06200076 5.82675263 0.31875959 8.9375 2.125 C10.6712306 5.18452459 10.42145216 7.56817525 10 11 C8.4375 13.4375 8.4375 13.4375 6 15 C0.03263086 15.73283481 0.03263086 15.73283481 -2.9375 13.625 C-4 12 -4 12 -4 10 C-13.17097057 10.10761668 -22.34186142 10.2202733 -31.51269054 10.33933926 C-35.77121134 10.39447029 -40.02973911 10.44787435 -44.28833008 10.49731445 C-48.39917644 10.54510315 -52.50994193 10.59745075 -56.6206913 10.65294075 C-58.18792007 10.67329871 -59.75517096 10.69202239 -61.32243919 10.70907402 C-63.51997225 10.7332638 -65.71735439 10.76329758 -67.91479492 10.79467773 C-69.16499924 10.81022202 -70.41520355 10.8257663 -71.70329285 10.84178162 C-74.94445449 10.9016403 -74.94445449 10.9016403 -77.81782532 11.63783264 C-78.53794296 11.75734787 -79.25806061 11.8768631 -80 12 C-80.66 11.34 -81.32 10.68 -82 10 C-81.625 7.375 -81.625 7.375 -81 5 C-78.625 4.375 -78.625 4.375 -76 4 C-75.34 4.66 -74.68 5.32 -74 6 C-71.0407092 6.33577614 -71.0407092 6.33577614 -67.51831055 6.32226562 C-66.85305359 6.33219543 -66.18779663 6.34212524 -65.50238037 6.35235596 C-63.297118 6.38161285 -61.09214347 6.39520575 -58.88671875 6.40625 C-57.35455822 6.41775334 -55.82239778 6.4292688 -54.29023743 6.4407959 C-51.07474424 6.46182074 -47.8593511 6.47350226 -44.64379883 6.48046875 C-40.52744571 6.49142999 -36.41241868 6.53945963 -32.29648113 6.59641266 C-29.12997104 6.63370537 -25.96377878 6.64407861 -22.79706764 6.6471405 C-21.27998428 6.65318766 -19.76290613 6.66922581 -18.24603844 6.69551086 C-10.2584251 7.20359301 -10.2584251 7.20359301 -3.05899048 4.62207031 C-1.58196094 2.81355506 -1.58196094 2.81355506 0 0 Z " fill="#6AB799" transform="translate(168,33)"/>
<path d="M0 0 C9.9 0 19.8 0 30 0 C30 4.29 30 8.58 30 13 C20.1 13 10.2 13 0 13 C0 8.71 0 4.42 0 0 Z " fill="#F7F5F2" transform="translate(101,205)"/>
<path d="M0 0 C3.50165855 2.5881824 4.77470816 4.27111465 6.0625 8.4375 C5.98454913 12.88069934 4.87270176 14.66145471 2 18 C-1.40803466 20.5854056 -4.84216793 20.51061096 -9 20 C-13.14948967 16.57216071 -14.84893898 14.53578707 -15.375 9.1875 C-15.34252457 5.61520314 -15.05167881 5.06564606 -12.6875 2.0625 C-8.23981568 -1.35083913 -5.3598911 -1.29376682 0 0 Z " fill="#435A62" transform="translate(124,122)"/>
<path d="M0 0 C3.08416293 2.05610862 4.68386831 3.45571068 5.44140625 7.15625 C5.65145934 11.22179369 5.32167203 13.46757733 3.1875 17 C0.33756556 19.60565434 -1.54948686 19.95828582 -5.375 20.3125 C-9.59334314 19.94884973 -11.04884992 18.95115008 -14 16 C-15.73631636 12.52736727 -15.60190402 8.78806987 -15 5 C-10.51832951 -0.66105746 -6.95672877 -1.88882502 0 0 Z " fill="#435A61" transform="translate(92,122)"/>
<path d="M0 0 C3.02182284 2.05741129 4.69011377 3.49949825 5.4453125 7.15625 C5.64857748 11.22154953 5.32172362 13.46749194 3.1875 17 C0.35137661 19.5930271 -1.5759293 19.95288103 -5.375 20.375 C-9 20 -9 20 -11.875 17.625 C-14.80962564 13.99987421 -15.39841308 11.76293863 -15.35546875 7.0390625 C-14.75359564 3.58655959 -12.68176469 2.05809848 -10 0 C-6.1544104 -1.2818632 -3.93271581 -0.94927623 0 0 Z " fill="#445A62" transform="translate(173,122)"/>
<path d="M0 0 C2.625 0.375 2.625 0.375 5 1 C5 1.99 5 2.98 5 4 C28.43 4 51.86 4 76 4 C76.33 3.01 76.66 2.02 77 1 C79.875 0.875 79.875 0.875 83 1 C85 3 85 3 85.25 5.5 C85 8 85 8 83 10 C79.875 10.125 79.875 10.125 77 10 C76.505 8.515 76.505 8.515 76 7 C74.55633812 7.02212303 74.55633812 7.02212303 73.08351135 7.04469299 C64.03346449 7.18272066 54.98335364 7.3154609 45.9331522 7.4429636 C41.27985307 7.50869268 36.62659718 7.5763142 31.97338867 7.64819336 C27.48661171 7.7174331 22.99978933 7.78178974 18.51289177 7.84269524 C16.79717381 7.86685555 15.08148011 7.89280478 13.36581612 7.92053413 C10.97121099 7.95893753 8.57660013 7.99109989 6.18188477 8.02172852 C5.46547318 8.03467453 4.74906158 8.04762054 4.01094055 8.06095886 C2.34060162 8.0790691 0.66982684 8.04514946 -1 8 C-2 7 -2 7 -2.1875 4.5625 C-2 2 -2 2 0 0 Z " fill="#6AB899" transform="translate(117,49)"/>
<path d="M0 0 C1.3303125 0.00773438 1.3303125 0.00773438 2.6875 0.015625 C3.574375 0.01046875 4.46125 0.0053125 5.375 0 C7.6875 0.265625 7.6875 0.265625 9.6875 2.265625 C9.85929052 5.15694677 9.9197947 7.94004565 9.875 10.828125 C9.87435547 11.62154297 9.87371094 12.41496094 9.87304688 13.23242188 C9.82775522 19.12536978 9.82775522 19.12536978 8.6875 20.265625 C7.00141034 20.33768011 5.31249341 20.34948568 3.625 20.328125 C2.70589844 20.31910156 1.78679687 20.31007813 0.83984375 20.30078125 C0.12957031 20.28917969 -0.58070313 20.27757812 -1.3125 20.265625 C-1.3125 19.275625 -1.3125 18.285625 -1.3125 17.265625 C1.3275 17.265625 3.9675 17.265625 6.6875 17.265625 C6.6875 16.605625 6.6875 15.945625 6.6875 15.265625 C5.74777344 15.30042969 5.74777344 15.30042969 4.7890625 15.3359375 C3.56316406 15.36300781 3.56316406 15.36300781 2.3125 15.390625 C1.50039062 15.41382813 0.68828125 15.43703125 -0.1484375 15.4609375 C-2.3125 15.265625 -2.3125 15.265625 -4.3125 13.265625 C-4.578125 10.734375 -4.578125 10.734375 -4.5625 7.765625 C-4.56765625 6.7859375 -4.5728125 5.80625 -4.578125 4.796875 C-4.22423978 1.42455707 -3.40784714 0.3914419 0 0 Z " fill="#5F937B" transform="translate(165.3125,252.734375)"/>
<path d="M0 0 C2.9375 0.1875 2.9375 0.1875 3.9375 1.1875 C5.59488443 1.28096915 7.25624644 1.30494977 8.91625977 1.30102539 C10.50779625 1.30091209 10.50779625 1.30091209 12.13148499 1.30079651 C13.285634 1.29563522 14.43978302 1.29047394 15.62890625 1.28515625 C17.3913694 1.28303383 17.3913694 1.28303383 19.18943787 1.28086853 C22.95965064 1.27524992 26.72980504 1.26269426 30.5 1.25 C33.04882727 1.2449874 35.59765547 1.24042408 38.14648438 1.23632812 C44.41017633 1.22527444 50.67383399 1.20851821 56.9375 1.1875 C56.2775 2.5075 55.6175 3.8275 54.9375 5.1875 C38.4375 5.1875 21.9375 5.1875 4.9375 5.1875 C4.2775 6.8375 3.6175 8.4875 2.9375 10.1875 C-1.51186709 10.54825949 -1.51186709 10.54825949 -3.875 9 C-5.46449375 6.5739306 -5.42737512 5.03352594 -5.0625 2.1875 C-3.0625 0.1875 -3.0625 0.1875 0 0 Z " fill="#66B395" transform="translate(145.0625,156.8125)"/>
<path d="M0 0 C3.5 0.875 3.5 0.875 5.4375 2 C7.1712306 5.05952459 6.92145216 7.44317525 6.5 10.875 C4.9375 13.3125 4.9375 13.3125 2.5 14.875 C-1.01850762 15.30709743 -3.36815557 15.51166249 -6.5 13.75 C-8.000624 10.93632999 -7.19482518 8.90696444 -6.5 5.875 C-6.5 4.885 -6.5 3.895 -6.5 2.875 C-4.62071019 -0.22030086 -3.67240546 -0.13115734 0 0 Z " fill="#6CB899" transform="translate(171.5,33.125)"/>
<path d="M0 0 C4.62 0 9.24 0 14 0 C18 6.625 18 6.625 18 10 C12.06 10 6.12 10 0 10 C0 6.7 0 3.4 0 0 Z " fill="#7CA9C5" transform="translate(163,90)"/>
<path d="M0 0 C1.33804794 0.31387354 2.67075069 0.65073627 4 1 C5.34210855 1.10825106 6.68806019 1.17472864 8.03417969 1.20532227 C9.20494049 1.2352401 9.20494049 1.2352401 10.39935303 1.26576233 C11.23178528 1.28247482 12.06421753 1.29918732 12.921875 1.31640625 C14.21185394 1.3475779 14.21185394 1.3475779 15.52789307 1.37937927 C18.26851598 1.44463739 21.00923275 1.50364917 23.75 1.5625 C25.6106867 1.60570781 27.47136398 1.64932282 29.33203125 1.69335938 C33.88792523 1.80029442 38.4439134 1.90162851 43 2 C43 2.99 43 3.98 43 5 C41.83952148 5.02505615 40.67904297 5.0501123 39.48339844 5.07592773 C35.17453118 5.17015772 30.86581927 5.27034035 26.55712891 5.37231445 C24.69290808 5.41560433 22.82864912 5.45728361 20.96435547 5.49731445 C18.2834118 5.55516113 15.602659 5.61881405 12.921875 5.68359375 C12.08944275 5.70030624 11.2570105 5.71701874 10.39935303 5.73423767 C9.61884583 5.75418289 8.83833862 5.77412811 8.03417969 5.79467773 C7.35023132 5.81022202 6.66628296 5.8257663 5.96160889 5.84178162 C3.94112349 5.94698301 3.94112349 5.94698301 1.81036377 6.57533264 C1.21294373 6.71547287 0.61552368 6.8556131 0 7 C-1 6 -1 6 -1.125 3.5 C-1 1 -1 1 0 0 Z " fill="#64B595" transform="translate(25,91)"/>
<path d="M0 0 C9.9609375 -0.1953125 9.9609375 -0.1953125 13 0 C15 2 15 2 15.1953125 5.0390625 C15.17210937 6.22242188 15.14890625 7.40578125 15.125 8.625 C15.10695312 9.81351562 15.08890625 11.00203125 15.0703125 12.2265625 C15.04710937 13.14179688 15.02390625 14.05703125 15 15 C13.68 15 12.36 15 11 15 C11 11.37 11 7.74 11 4 C8.69 4 6.38 4 4 4 C4 7.63 4 11.26 4 15 C2.68 15 1.36 15 0 15 C0 10.05 0 5.1 0 0 Z " fill="#73A08B" transform="translate(144,253)"/>
<path d="M0 0 C1.32 0 2.64 0 4 0 C4 3.3 4 6.6 4 10 C4.9075 9.175 5.815 8.35 6.75 7.5 C9.53624497 4.96705003 9.87258261 5 14 5 C12.79618552 7.49361571 11.54571278 9.68143083 10 12 C10.66 12.78375 11.32 13.5675 12 14.375 C14 17 14 17 14 19 C9.62140745 18.49477778 7.18348776 15.82172778 4 13 C4 14.98 4 16.96 4 19 C2.68 19 1.36 19 0 19 C0 12.73 0 6.46 0 0 Z " fill="#689982" transform="translate(122,249)"/>
<path d="M0 0 C11.88 0 23.76 0 36 0 C35.67 1.65 35.34 3.3 35 5 C23.45 4.67 11.9 4.34 0 4 C0 2.68 0 1.36 0 0 Z " fill="#7BBFA4" transform="translate(28,102)"/>
<path d="M0 0 C1.09054688 0.02320313 2.18109375 0.04640625 3.3046875 0.0703125 C4.40039062 0.08835938 5.49609375 0.10640625 6.625 0.125 C7.46804687 0.14820313 8.31109375 0.17140625 9.1796875 0.1953125 C9.1796875 1.5153125 9.1796875 2.8353125 9.1796875 4.1953125 C5.5496875 4.1953125 1.9196875 4.1953125 -1.8203125 4.1953125 C-1.8203125 6.5053125 -1.8203125 8.8153125 -1.8203125 11.1953125 C1.8096875 11.1953125 5.4396875 11.1953125 9.1796875 11.1953125 C9.1796875 12.5153125 9.1796875 13.8353125 9.1796875 15.1953125 C7.22165243 15.24920337 5.26319841 15.28805467 3.3046875 15.3203125 C2.21414062 15.34351563 1.12359375 15.36671875 0 15.390625 C-2.8203125 15.1953125 -2.8203125 15.1953125 -4.8203125 13.1953125 C-5.0859375 10.6640625 -5.0859375 10.6640625 -5.0703125 7.6953125 C-5.07546875 6.715625 -5.080625 5.7359375 -5.0859375 4.7265625 C-4.69420356 0.99356849 -3.70752098 0.25675353 0 0 Z " fill="#679982" transform="translate(110.8203125,252.8046875)"/>
<path d="M0 0 C1.875 1.0625 1.875 1.0625 3 3 C3.4375 6.5 3.4375 6.5 3 10 C1.3125 12 1.3125 12 -1 13 C-3.81900839 12.8624874 -5.45769347 12.35530428 -7.8125 10.8125 C-9.58260835 8.11075568 -9.39415803 6.15326426 -9 3 C-6.79086995 -0.68188342 -4.01844539 -0.50230567 0 0 Z " fill="#68B898" transform="translate(58,44)"/>
<path d="M0 0 C1.32 0 2.64 0 4 0 C4 3.96 4 7.92 4 12 C6.64 12 9.28 12 12 12 C12 8.04 12 4.08 12 0 C12.99 0 13.98 0 15 0 C15.05386629 2.12472576 15.09273071 4.24983652 15.125 6.375 C15.14820312 7.55835938 15.17140625 8.74171875 15.1953125 9.9609375 C15 13 15 13 13 15 C10.72265625 15.265625 10.72265625 15.265625 8.0625 15.25 C7.18722656 15.25515625 6.31195313 15.2603125 5.41015625 15.265625 C3 15 3 15 0 13 C-0.29296875 9.9609375 -0.29296875 9.9609375 -0.1875 6.375 C-0.16042969 5.18648438 -0.13335937 3.99796875 -0.10546875 2.7734375 C-0.07066406 1.85820312 -0.03585938 0.94296875 0 0 Z " fill="#689983" transform="translate(89,253)"/>
<path d="M0 0 C2 2 2 2 2.3125 5.4375 C2 9 2 9 0.9375 11 C-2.22796524 12.63378851 -4.65020286 11.85267564 -8 11 C-10.15502531 7.76746204 -10.46856135 6.74849077 -10 3 C-7.65916893 -0.99318242 -4.22752593 -0.38432054 0 0 Z " fill="#10212B" transform="translate(123,126)"/>
<path d="M0 0 C1.9375 1.0625 1.9375 1.0625 3 3 C2.66666667 9.33333333 2.66666667 9.33333333 0 12 C-3.10347254 12.33015665 -5.15781176 12.50531294 -7.875 10.875 C-9.52854531 8.11909116 -9.39365568 6.14924548 -9 3 C-6.79086995 -0.68188342 -4.01844539 -0.50230567 0 0 Z " fill="#10212B" transform="translate(90,126)"/>
<path d="M0 0 C0.99 0.66 1.98 1.32 3 2 C3.4375 5.4375 3.4375 5.4375 3 9 C1.375 11 1.375 11 -1 12 C-4.125 11.875 -4.125 11.875 -7 11 C-9.15502531 7.76746204 -9.46856135 6.74849077 -9 3 C-6.72678821 -0.66239677 -4.03980218 -0.42081273 0 0 Z " fill="#081923" transform="translate(171,126)"/>
<path d="M0 0 C6.93 0 13.86 0 21 0 C21 1.65 21 3.3 21 5 C14.4 5 7.8 5 1 5 C0.67 3.35 0.34 1.7 0 0 Z " fill="#41565E" transform="translate(133,125)"/>
<path d="M0 0 C5.61 0 11.22 0 17 0 C17 0.99 17 1.98 17 3 C14.69 3 12.38 3 10 3 C10 7.95 10 12.9 10 18 C9.01 18 8.02 18 7 18 C7 13.05 7 8.1 7 3 C4.69 3 2.38 3 0 3 C0 2.01 0 1.02 0 0 Z " fill="#518A71" transform="translate(57,250)"/>
<path d="M0 0 C1.33740805 0.31658898 2.6700124 0.65355828 4 1 C5.58567839 1.1421701 7.17518632 1.24504041 8.765625 1.31640625 C9.65507812 1.35830078 10.54453125 1.40019531 11.4609375 1.44335938 C12.38132813 1.48267578 13.30171875 1.52199219 14.25 1.5625 C15.18585938 1.60568359 16.12171875 1.64886719 17.0859375 1.69335938 C19.39048641 1.7991805 21.69513839 1.90126557 24 2 C24 2.99 24 3.98 24 5 C23.41508789 5.02505615 22.83017578 5.0501123 22.22753906 5.07592773 C19.56815529 5.19222962 16.90909597 5.31480067 14.25 5.4375 C12.86941406 5.49647461 12.86941406 5.49647461 11.4609375 5.55664062 C10.57148438 5.59853516 9.68203125 5.64042969 8.765625 5.68359375 C7.94868164 5.72025146 7.13173828 5.75690918 6.29003906 5.79467773 C3.98737729 5.93778434 3.98737729 5.93778434 1.76464844 6.58227539 C1.18231445 6.72012451 0.59998047 6.85797363 0 7 C-1 6 -1 6 -1.125 3.5 C-1 1 -1 1 0 0 Z " fill="#67B696" transform="translate(161,168)"/>
<path d="M0 0 C0.99 0.103125 1.98 0.20625 3 0.3125 C5 3.3125 5 3.3125 4.6875 6.4375 C4 9.3125 4 9.3125 3 10.3125 C0.19048514 10.60823841 -1.41628976 10.69493085 -3.8125 9.125 C-5.40199375 6.6989306 -5.36487512 5.15852594 -5 2.3125 C-3 0.3125 -3 0.3125 0 0 Z " fill="#63B596" transform="translate(145,156.6875)"/>
<path d="M0 0 C8.91 0 17.82 0 27 0 C26.67 0.99 26.34 1.98 26 3 C17.42 3 8.84 3 0 3 C0 2.01 0 1.02 0 0 Z " fill="#6EB79A" transform="translate(34,111)"/>
<path d="M0 0 C4.62 0 9.24 0 14 0 C13.67 1.65 13.34 3.3 13 5 C8.71 5 4.42 5 0 5 C0 3.35 0 1.7 0 0 Z " fill="#61757A" transform="translate(59,125)"/>
<path d="M0 0 C1.51400391 0.01740234 1.51400391 0.01740234 3.05859375 0.03515625 C4.07050781 0.04417969 5.08242187 0.05320313 6.125 0.0625 C7.29869141 0.07990234 7.29869141 0.07990234 8.49609375 0.09765625 C8.49609375 1.08765625 8.49609375 2.07765625 8.49609375 3.09765625 C5.52609375 3.09765625 2.55609375 3.09765625 -0.50390625 3.09765625 C-0.50390625 6.72765625 -0.50390625 10.35765625 -0.50390625 14.09765625 C-1.49390625 14.09765625 -2.48390625 14.09765625 -3.50390625 14.09765625 C-3.53076563 11.95188988 -3.55023713 9.8060298 -3.56640625 7.66015625 C-3.57800781 6.46519531 -3.58960937 5.27023437 -3.6015625 4.0390625 C-3.47195922 0.13541183 -3.47195922 0.13541183 0 0 Z " fill="#60947C" transform="translate(79.50390625,253.90234375)"/>
<path d="M0 0 C3.5625 0.1875 3.5625 0.1875 5.5625 2.1875 C5.6875 5.3125 5.6875 5.3125 5.5625 8.1875 C5.2325 6.8675 4.9025 5.5475 4.5625 4.1875 C3.9025 4.1875 3.2425 4.1875 2.5625 4.1875 C2.2325 5.5075 1.9025 6.8275 1.5625 8.1875 C-2.3125 7.3125 -2.3125 7.3125 -3.4375 6.1875 C-4.0975 6.8475 -4.7575 7.5075 -5.4375 8.1875 C-4.42618176 0.2414281 -4.42618176 0.2414281 0 0 Z " fill="#73BA9E" transform="translate(205.4375,72.8125)"/>
<path d="M0 0 C0 0.66 0 1.32 0 2 C16.17 2 32.34 2 49 2 C49 2.33 49 2.66 49 3 C30.52 3 12.04 3 -7 3 C-2.5 0 -2.5 0 0 0 Z " fill="#D1EBDC" transform="translate(122,179)"/>
<path d="M0 0 C0.33 0 0.66 0 1 0 C0.99097656 0.86882812 0.98195312 1.73765625 0.97265625 2.6328125 C0.93702497 9.22665482 0.93702497 9.22665482 3.51953125 15.05859375 C5.2870956 16.49125117 7.10638141 17.74188153 9 19 C10.9375 21.375 10.9375 21.375 12 23 C11.01 23.66 10.02 24.32 9 25 C7.68445979 23.71142987 6.37265903 22.41904109 5.0625 21.125 C3.96615234 20.04605469 3.96615234 20.04605469 2.84765625 18.9453125 C-0.56991548 15.34710801 -0.11900806 12.08690272 -0.0625 7.375 C-0.05798828 6.66859375 -0.05347656 5.9621875 -0.04882812 5.234375 C-0.03703875 3.48954725 -0.01910324 1.744763 0 0 Z " fill="#73BA9E" transform="translate(204,84)"/>
<path d="M0 0 C1.32 0 2.64 0 4 0 C4 4.95 4 9.9 4 15 C2.68 15 1.36 15 0 15 C0 10.05 0 5.1 0 0 Z " fill="#76A38E" transform="translate(138,253)"/>
<path d="M0 0 C2.64 0 5.28 0 8 0 C8 2.31 8 4.62 8 7 C5.36 7 2.72 7 0 7 C0 4.69 0 2.38 0 0 Z " fill="#F7F6F3" transform="translate(164,257)"/>
<path d="M0 0 C2.5625 0.1875 2.5625 0.1875 4.5625 2.1875 C4.00694444 6.74305556 4.00694444 6.74305556 2.5625 8.1875 C0.0625 8.3125 0.0625 8.3125 -2.4375 8.1875 C-3.4375 7.1875 -3.4375 7.1875 -3.5625 4.1875 C-3.39891479 0.26145498 -3.39891479 0.26145498 0 0 Z " fill="#DCF5E8" transform="translate(170.4375,36.8125)"/>
<path d="M0 0 C3.4375 0.875 3.4375 0.875 5.4375 3.875 C4.4475 4.535 3.4575 5.195 2.4375 5.875 C2.1075 5.545 1.7775 5.215 1.4375 4.875 C-0.22867115 4.83436168 -1.89638095 4.832279 -3.5625 4.875 C-3.8925 6.855 -4.2225 8.835 -4.5625 10.875 C-5.5525 11.205 -6.5425 11.535 -7.5625 11.875 C-7.3975 10.946875 -7.2325 10.01875 -7.0625 9.0625 C-6.48501612 5.91878647 -6.48501612 5.91878647 -6.5625 2.875 C-4.66687833 -0.2472004 -3.70980413 -0.13016857 0 0 Z " fill="#76BDA1" transform="translate(171.5625,33.125)"/>
<path d="M0 0 C1.32 0.66 2.64 1.32 4 2 C4.125 4.375 4.125 4.375 4 7 C2 9 2 9 -1.125 9.125 C-2.548125 9.063125 -2.548125 9.063125 -4 9 C-4.33 8.34 -4.66 7.68 -5 7 C-4.34 7 -3.68 7 -3 7 C-2.67 5.35 -2.34 3.7 -2 2 C-1.34 2 -0.68 2 0 2 C0 1.34 0 0.68 0 0 Z " fill="#7CC0A5" transform="translate(198,50)"/>
<path d="M0 0 C2.62502559 1.31251279 3.1209358 2.74357249 4.5 5.3125 C4.9228125 6.09238281 5.345625 6.87226563 5.78125 7.67578125 C6.88034495 9.77181168 7.95132286 11.87837078 9 14 C8.01 14.99 7.02 15.98 6 17 C4.98758753 15.11076602 3.99052575 13.21330056 3 11.3125 C2.443125 10.25675781 1.88625 9.20101562 1.3125 8.11328125 C0.0327726 5.07773738 -0.28851043 3.23973174 0 0 Z " fill="#2E9C79" transform="translate(24,126)"/>
<path d="M0 0 C2 0 2 0 4.3125 2.25 C5.6428125 3.61125 5.6428125 3.61125 7 5 C8.64864545 6.35555293 10.31003995 7.69631653 12 9 C11.67 10.32 11.34 11.64 11 13 C2.30169972 5.66997167 2.30169972 5.66997167 0 3 C0 2.01 0 1.02 0 0 Z " fill="#37A07D" transform="translate(37,131)"/>
<path d="M0 0 C2 0.3125 2 0.3125 4 1 C4.33 1.66 4.66 2.32 5 3 C7.8159849 3.46898963 7.8159849 3.46898963 11.0625 3.625 C12.71958984 3.73714844 12.71958984 3.73714844 14.41015625 3.8515625 C15.26480469 3.90054688 16.11945312 3.94953125 17 4 C17 4.33 17 4.66 17 5 C16.10796875 5.06058594 15.2159375 5.12117188 14.296875 5.18359375 C12.54117188 5.30927734 12.54117188 5.30927734 10.75 5.4375 C9.58984375 5.51871094 8.4296875 5.59992188 7.234375 5.68359375 C4.12133032 5.90649289 4.12133032 5.90649289 1.640625 6.59765625 C1.09921875 6.73042969 0.5578125 6.86320312 0 7 C-1 6 -1 6 -1.125 3.5 C-1 1 -1 1 0 0 Z " fill="#6EB99B" transform="translate(25,91)"/>
<path d="M0 0 C0.66 0.66 1.32 1.32 2 2 C-4.27 8.27 -10.54 14.54 -17 21 C-17.99 20.67 -18.98 20.34 -20 20 C-19.30777344 19.41605469 -19.30777344 19.41605469 -18.6015625 18.8203125 C-8.42242365 10.21353412 -8.42242365 10.21353412 0 0 Z " fill="#C4EDDA" transform="translate(218,142)"/>
<path d="M0 0 C1.65 0 3.3 0 5 0 C5 1.65 5 3.3 5 5 C4.01 5.33 3.02 5.66 2 6 C1.484375 6.515625 0.96875 7.03125 0.4375 7.5625 C-0.2740625 8.2740625 -0.2740625 8.2740625 -1 9 C-1.66 9 -2.32 9 -3 9 C-2.01 6.03 -1.02 3.06 0 0 Z " fill="#1D8969" transform="translate(148,68)"/>
<path d="M0 0 C0.33 0 0.66 0 1 0 C1.0810206 2.10353495 1.13919907 4.20795952 1.1875 6.3125 C1.22230469 7.48425781 1.25710937 8.65601562 1.29296875 9.86328125 C1 13 1 13 -0.51171875 14.91796875 C-1.00285156 15.27503906 -1.49398437 15.63210937 -2 16 C-2.185625 15.071875 -2.185625 15.071875 -2.375 14.125 C-2.87197356 11.80879168 -2.87197356 11.80879168 -5 10 C-4.34 9.67 -3.68 9.34 -3 9 C-2.09274566 6.88672575 -2.09274566 6.88672575 -1.375 4.4375 C-1.11460937 3.61121094 -0.85421875 2.78492187 -0.5859375 1.93359375 C-0.39257812 1.29550781 -0.19921875 0.65742187 0 0 Z " fill="#02121B" transform="translate(196,109)"/>
<path d="M0 0 C0.94875 0.04125 1.8975 0.0825 2.875 0.125 C2.215 2.435 1.555 4.745 0.875 7.125 C-0.115 6.795 -1.105 6.465 -2.125 6.125 C-2.455 5.465 -2.785 4.805 -3.125 4.125 C-3.785 5.115 -4.445 6.105 -5.125 7.125 C-5.25 4.75 -5.25 4.75 -5.125 2.125 C-3.125 0.125 -3.125 0.125 0 0 Z " fill="#85C8AD" transform="translate(145.125,156.875)"/>
<path d="M0 0 C-0.99 0.33 -1.98 0.66 -3 1 C-0.03 1.495 -0.03 1.495 3 2 C3 2.33 3 2.66 3 3 C-2.94 3 -8.88 3 -15 3 C-12.41464321 1.27642881 -10.96188386 0.55264982 -8.0625 -0.1875 C-7.39347656 -0.36667969 -6.72445312 -0.54585937 -6.03515625 -0.73046875 C-3.75319112 -1.03268678 -2.17973341 -0.68756692 0 0 Z " fill="#407760" transform="translate(186,179)"/>
<path d="M0 0 C0.33 0.66 0.66 1.32 1 2 C-1.64 5.3 -4.28 8.6 -7 12 C-7.33 11.34 -7.66 10.68 -8 10 C-5.36 6.7 -2.72 3.4 0 0 Z " fill="#31725A" transform="translate(24,28)"/>
<path d="M0 0 C2.56995074 1.28497537 2.90434463 2.49912373 4.125 5.0625 C4.47820313 5.79597656 4.83140625 6.52945313 5.1953125 7.28515625 C5.46085937 7.85105469 5.72640625 8.41695312 6 9 C4.35 8.67 2.7 8.34 1 8 C0.67 5.36 0.34 2.72 0 0 Z " fill="#4EA989" transform="translate(24,126)"/>
<path d="M0 0 C0.66 0.33 1.32 0.66 2 1 C2 1.66 2 2.32 2 3 C4.31 3.33 6.62 3.66 9 4 C9 4.33 9 4.66 9 5 C5.37 5.33 1.74 5.66 -2 6 C-1 1 -1 1 0 0 Z " fill="#208467" transform="translate(115,112)"/>
<path d="M0 0 C1.98 0.495 1.98 0.495 4 1 C3.67 2.32 3.34 3.64 3 5 C1.68 4.67 0.36 4.34 -1 4 C-0.67 2.68 -0.34 1.36 0 0 Z " fill="#C9ECDD" transform="translate(204,76)"/>
<path d="M0 0 C0.99 0.33 1.98 0.66 3 1 C3 2.32 3 3.64 3 5 C1.68 4.67 0.36 4.34 -1 4 C-0.67 2.68 -0.34 1.36 0 0 Z " fill="#3F545D" transform="translate(167,129)"/>
</svg>
